<svg width="50" height="50" viewBox="0 0 50 50" fill="none" xmlns="http://www.w3.org/2000/svg">
<path d="M12.6438 12.8052L24.7402 9.03956C24.9096 8.98681 25.0901 8.98681 25.2595 9.03956L37.3562 12.8052C37.7383 12.9241 38 13.2891 38 13.7031V27.5104C38 29.3062 37.2993 31.1446 35.9175 32.9744C34.8622 34.3719 33.4021 35.7752 31.578 37.1454C28.5136 39.4472 25.496 40.8592 25.369 40.9181C25.2516 40.9727 25.1258 41 24.9999 41C24.874 41 24.7481 40.9728 24.6307 40.9181C24.5038 40.8592 21.4863 39.4472 18.4219 37.1454C16.5978 35.7752 15.1377 34.3719 14.0823 32.9744C12.7006 31.1447 12 29.3063 12 27.5104V13.7031C12 13.2891 12.2616 12.9241 12.6438 12.8052Z" stroke="#0CB913" stroke-width="1.5" stroke-linecap="round" stroke-linejoin="round"/>
<path d="M17.5 24.5L23 30L32.5 18" stroke="#0CB913" stroke-width="1.5" stroke-linecap="round" stroke-linejoin="round"/>
</svg>
