<svg width="64" height="64" viewBox="0 0 64 64" fill="none" xmlns="http://www.w3.org/2000/svg">
<path d="M31.9999 17.8333C39.824 17.8333 46.1666 24.1759 46.1666 31.9999C46.1666 39.824 39.824 46.1666 31.9999 46.1666C24.1759 46.1666 17.8333 39.824 17.8333 31.9999C17.8333 24.1759 24.1759 17.8333 31.9999 17.8333ZM36.5611 27.707L30.2291 34.039L27.4387 31.2486C27.0238 30.8337 26.351 30.8337 25.9361 31.2486C25.5212 31.6635 25.5212 32.3363 25.9361 32.7512L29.4778 36.2929C29.8927 36.7078 30.5655 36.7078 30.9804 36.2929L38.0637 29.2096C38.4787 28.7946 38.4787 28.1219 38.0637 27.707C37.6488 27.292 36.976 27.292 36.5611 27.707Z" fill="#B9F5FF"/>
<path d="M31.9999 17.8333C39.824 17.8333 46.1666 24.1759 46.1666 31.9999C46.1666 39.824 39.824 46.1666 31.9999 46.1666C24.1759 46.1666 17.8333 39.824 17.8333 31.9999C17.8333 24.1759 24.1759 17.8333 31.9999 17.8333ZM31.9999 19.9583C25.3495 19.9583 19.9583 25.3495 19.9583 31.9999C19.9583 38.6503 25.3495 44.0416 31.9999 44.0416C38.6503 44.0416 44.0416 38.6503 44.0416 31.9999C44.0416 25.3495 38.6503 19.9583 31.9999 19.9583ZM30.2291 34.039L36.5611 27.707C36.976 27.292 37.6488 27.292 38.0637 27.707C38.4409 28.0842 38.4752 28.6744 38.1666 29.0904L38.0637 29.2096L30.9804 36.2929C30.6032 36.6701 30.0129 36.7044 29.597 36.3958L29.4778 36.2929L25.9361 32.7512C25.5212 32.3363 25.5212 31.6635 25.9361 31.2486C26.3133 30.8714 26.9036 30.8371 27.3196 31.1457L27.4387 31.2486L30.2291 34.039L36.5611 27.707L30.2291 34.039Z" fill="#0078D4"/>
</svg>
