<svg width="219" height="99" viewBox="0 0 219 99" fill="none" xmlns="http://www.w3.org/2000/svg">
<path d="M8.58141 67.726L8.58115 50.626H44.3772L44.3774 67.726H8.58141ZM55.5729 91.894L84.4141 34.78C85.25 33.108 86.048 31.664 86.808 30.448C87.644 29.232 88.252 28.434 88.632 28.054L89.2019 27.37L89.2019 27.142C88.7459 27.37 87.15 27.484 84.414 27.484H52.1519L52.1517 10.384H110.634L110.634 24.292L76.4349 91.894H55.5729ZM163.357 90.07C159.329 92.198 154.503 93.262 148.879 93.262C143.255 93.262 138.391 92.198 134.287 90.07C130.259 87.866 127.105 84.788 124.825 80.836C122.545 76.884 120.873 72.438 119.809 67.498C118.745 62.558 118.213 57.048 118.213 50.968C118.213 44.888 118.744 39.416 119.808 34.552C120.872 29.612 122.544 25.204 124.824 21.328C127.104 17.376 130.258 14.336 134.286 12.208C138.39 10.08 143.254 9.01604 148.878 9.01604C154.502 9.01604 159.328 10.08 163.356 12.208C167.46 14.336 170.652 17.376 172.932 21.328C175.212 25.204 176.884 29.612 177.948 34.552C179.012 39.416 179.545 44.888 179.545 50.968C179.545 57.048 179.013 62.558 177.949 67.498C176.885 72.438 175.213 76.884 172.933 80.836C170.653 84.788 167.461 87.866 163.357 90.07ZM138.733 50.968C138.733 67.004 142.115 75.022 148.879 75.022C155.643 75.022 159.025 67.004 159.025 50.968C159.024 35.16 155.642 27.256 148.878 27.256C142.114 27.256 138.732 35.16 138.733 50.968Z" fill="white"/>
<path d="M192.974 29.72C190.947 29.72 189.227 29.0533 187.814 27.72C186.427 26.3867 185.733 24.76 185.733 22.84C185.733 20.9467 186.44 19.32 187.853 17.96C189.267 16.6 190.973 15.92 192.973 15.92C194.973 15.92 196.68 16.6 198.093 17.96C199.507 19.32 200.213 20.9467 200.213 22.84C200.213 24.76 199.507 26.3867 198.094 27.72C196.68 29.0533 194.974 29.72 192.974 29.72ZM187.334 45L209.413 16.4H215.493L193.414 45H187.334ZM191.413 24.32C191.84 24.72 192.36 24.92 192.973 24.92C193.587 24.92 194.107 24.72 194.533 24.32C194.96 23.8933 195.173 23.3867 195.173 22.8C195.173 22.24 194.947 21.76 194.493 21.36C194.067 20.9333 193.56 20.72 192.973 20.72C192.387 20.72 191.867 20.9333 191.413 21.36C190.987 21.76 190.773 22.24 190.773 22.8C190.773 23.3867 190.987 23.8933 191.413 24.32ZM202.814 38.6C202.814 36.7067 203.52 35.08 204.934 33.72C206.347 32.36 208.054 31.68 210.054 31.68C212.054 31.68 213.76 32.36 215.174 33.72C216.587 35.08 217.294 36.7067 217.294 38.6C217.294 40.52 216.587 42.1467 215.174 43.48C213.76 44.8133 212.054 45.48 210.054 45.48C208.027 45.48 206.307 44.8133 204.894 43.48C203.507 42.1467 202.814 40.52 202.814 38.6ZM207.854 38.56C207.854 39.1467 208.067 39.6533 208.494 40.08C208.92 40.48 209.44 40.68 210.054 40.68C210.667 40.68 211.187 40.48 211.614 40.08C212.04 39.6533 212.254 39.1467 212.254 38.56C212.254 38 212.027 37.52 211.574 37.12C211.147 36.6933 210.64 36.48 210.054 36.48C209.467 36.48 208.947 36.6933 208.494 37.12C208.067 37.52 207.854 38 207.854 38.56Z" fill="white"/>
<path d="M14.9078 35.0439H19.3278L19.3277 26.7239H16.4677L16.4677 27.3839C16.4677 28.7039 16.3411 30.0573 16.0878 31.4439C15.8478 32.8306 15.4545 34.0306 14.9078 35.0439ZM9.84783 35.0439H11.3278C12.5411 32.9373 13.1477 30.2906 13.1477 27.1039L13.1476 23.7239H22.8276L22.8278 35.0439H24.4278L24.4279 40.8239H21.3279L21.3279 38.0239H13.0679L13.0679 40.8239H9.84793L9.84783 35.0439ZM25.5835 30.7839C25.5835 28.7173 26.2901 26.9839 27.7034 25.5839C29.1301 24.1839 30.9167 23.4839 33.0634 23.4839C35.2101 23.4839 36.9901 24.1839 38.4034 25.5839C39.8301 26.9839 40.5435 28.7173 40.5435 30.7839C40.5436 32.9039 39.8303 34.6839 38.4036 36.1239C36.9903 37.5506 35.2103 38.2639 33.0637 38.2639C30.917 38.2639 29.1303 37.5506 27.7036 36.1239C26.2903 34.6839 25.5836 32.9039 25.5835 30.7839ZM29.2035 30.7839C29.2036 31.9973 29.5769 33.0173 30.3236 33.8439C31.0703 34.6573 31.9836 35.0639 33.0636 35.0639C34.1436 35.0639 35.0569 34.6573 35.8036 33.8439C36.5502 33.0173 36.9236 31.9973 36.9235 30.7839C36.9235 29.6239 36.5502 28.6506 35.8035 27.8639C35.0568 27.0773 34.1435 26.6839 33.0635 26.6839C31.9835 26.6839 31.0701 27.0773 30.3235 27.8639C29.5768 28.6506 29.2035 29.6239 29.2035 30.7839Z" fill="white"/>
</svg>